<svg width="25" height="26" viewBox="0 0 25 26" fill="none" xmlns="http://www.w3.org/2000/svg">
<g clip-path="url(#clip0_0_307)">
<path d="M14.4648 8.96493H16.5312V11.0314C16.5312 11.5996 16.9962 12.0646 17.5644 12.0646C18.1327 12.0646 18.5977 11.5996 18.5977 11.0314V8.96493H20.6641C21.2324 8.96493 21.6973 8.49998 21.6973 7.93171C21.6973 7.36344 21.2324 6.89849 20.6641 6.89849H18.5977V4.83205C18.5977 4.26378 18.1327 3.79883 17.5644 3.79883C16.9962 3.79883 16.5312 4.26378 16.5312 4.83205V6.89849H14.4648C13.8965 6.89849 13.4315 7.36344 13.4315 7.93171C13.4315 8.49998 13.8965 8.96493 14.4648 8.96493ZM19.8478 16.4764L17.2235 16.1768C16.5932 16.1045 15.9733 16.3215 15.529 16.7657L13.6279 18.6669C10.7038 17.179 8.30677 14.7923 6.81894 11.858L8.7304 9.94649C9.17468 9.50221 9.39166 8.87194 9.31933 8.25201L9.0197 5.64829C8.90604 4.60474 8.01747 3.80916 6.97392 3.80916H5.18645C4.01891 3.80916 3.04768 4.78039 3.12001 5.94793C3.66761 14.7716 10.7245 21.8182 19.5379 22.3658C20.7054 22.4381 21.6767 21.4669 21.6767 20.2994V18.5119C21.687 17.4787 20.8914 16.5901 19.8478 16.4764Z" fill="#020407"/>
</g>
<defs>
<clipPath id="clip0_0_307">
<rect width="24.7973" height="24.7973" fill="white" transform="translate(0 0.699219)"/>
</clipPath>
</defs>
</svg>
