<svg width="40" height="41" viewBox="0 0 40 41" fill="none" xmlns="http://www.w3.org/2000/svg">
<path d="M27.5004 10.8418H22.5004C21.5799 10.8418 20.8338 11.588 20.8338 12.5085V17.5085H27.5004C27.6899 17.5043 27.8698 17.5925 27.9824 17.745C28.0951 17.8975 28.1268 18.0951 28.0671 18.2751L26.8338 21.9418C26.7201 22.2783 26.4056 22.5058 26.0504 22.5085H20.8338V35.0085C20.8338 35.4686 20.4606 35.8418 20.0004 35.8418H15.8338C15.3735 35.8418 15.0004 35.4686 15.0004 35.0085V22.5085H12.5004C12.0402 22.5085 11.6671 22.1353 11.6671 21.6751V18.3418C11.6671 17.8816 12.0402 17.5085 12.5004 17.5085H15.0004V12.5085C15.0004 8.82656 17.9853 5.8418 21.6671 5.8418H27.5004C27.9606 5.8418 28.3338 6.2149 28.3338 6.67513V10.0085C28.3338 10.4687 27.9606 10.8418 27.5004 10.8418Z" fill="#020407"/>
</svg>
