<svg width="41" height="41" viewBox="0 0 41 41" fill="none" xmlns="http://www.w3.org/2000/svg">
<path fill-rule="evenodd" clip-rule="evenodd" d="M26.7585 5.8418H13.4251C8.82276 5.8418 5.0918 9.57276 5.0918 14.1751V27.5085C5.0918 32.1108 8.82276 35.8418 13.4251 35.8418H26.7585C31.3608 35.8418 35.0918 32.1108 35.0918 27.5085V14.1751C35.0918 9.57276 31.3608 5.8418 26.7585 5.8418ZM32.1751 27.5085C32.166 30.4961 29.7461 32.916 26.7585 32.9251H13.4251C10.4374 32.916 8.01761 30.4961 8.00846 27.5085V14.1751C8.01761 11.1874 10.4374 8.76761 13.4251 8.75846H26.7585C29.7461 8.76761 32.166 11.1874 32.1751 14.1751V27.5085ZM28.0085 14.5918C28.929 14.5918 29.6751 13.8456 29.6751 12.9251C29.6751 12.0047 28.929 11.2585 28.0085 11.2585C27.088 11.2585 26.3418 12.0047 26.3418 12.9251C26.3418 13.8456 27.088 14.5918 28.0085 14.5918ZM20.0918 13.3418C15.9497 13.3418 12.5918 16.6997 12.5918 20.8418C12.5918 24.984 15.9497 28.3418 20.0918 28.3418C24.234 28.3418 27.5918 24.984 27.5918 20.8418C27.5963 18.8513 26.8075 16.9411 25.4 15.5336C23.9925 14.1261 22.0823 13.3374 20.0918 13.3418ZM15.5085 20.8418C15.5085 23.3731 17.5605 25.4251 20.0918 25.4251C22.6231 25.4251 24.6751 23.3731 24.6751 20.8418C24.6751 18.3105 22.6231 16.2585 20.0918 16.2585C17.5605 16.2585 15.5085 18.3105 15.5085 20.8418Z" fill="#020407"/>
</svg>
