<svg width="41" height="41" viewBox="0 0 41 41" fill="none" xmlns="http://www.w3.org/2000/svg">
<path fill-rule="evenodd" clip-rule="evenodd" d="M8.60607 5.8418H31.9394C33.7804 5.8418 35.2727 7.33418 35.2727 9.17513V32.5085C35.2727 34.3495 33.7804 35.8418 31.9394 35.8418H8.60607C6.76512 35.8418 5.27274 34.3495 5.27274 32.5085V9.17513C5.27274 7.33418 6.76512 5.8418 8.60607 5.8418ZM13.6061 30.8418C14.0663 30.8418 14.4394 30.4686 14.4394 30.0085V18.3418C14.4394 17.8816 14.0663 17.5085 13.6061 17.5085H11.1061C10.6458 17.5085 10.2727 17.8816 10.2727 18.3418V30.0085C10.2727 30.4686 10.6458 30.8418 11.1061 30.8418H13.6061ZM12.3561 15.8418C10.9754 15.8418 9.85607 14.7225 9.85607 13.3418C9.85607 11.9611 10.9754 10.8418 12.3561 10.8418C13.7368 10.8418 14.8561 11.9611 14.8561 13.3418C14.8561 14.7225 13.7368 15.8418 12.3561 15.8418ZM29.4394 30.8418C29.8996 30.8418 30.2727 30.4686 30.2727 30.0085V22.3418C30.3269 19.6931 28.3687 17.4327 25.7394 17.1085C23.9011 16.9405 22.1199 17.7991 21.1061 19.3418V18.3418C21.1061 17.8816 20.7329 17.5085 20.2727 17.5085H17.7727C17.3126 17.5085 16.9394 17.8816 16.9394 18.3418V30.0085C16.9394 30.4686 17.3126 30.8418 17.7727 30.8418H20.2727C20.7329 30.8418 21.1061 30.4686 21.1061 30.0085V23.7585C21.1061 22.3778 22.2254 21.2585 23.6061 21.2585C24.9867 21.2585 26.1061 22.3778 26.1061 23.7585V30.0085C26.1061 30.4686 26.4792 30.8418 26.9394 30.8418H29.4394Z" fill="#020407"/>
</svg>
