<svg width="25" height="26" viewBox="0 0 25 26" fill="none" xmlns="http://www.w3.org/2000/svg">
<g clip-path="url(#clip0_0_302)">
<path d="M20.6644 4.83008H4.13285C2.9963 4.83008 2.07674 5.75998 2.07674 6.89652L2.06641 19.2952C2.06641 20.4317 2.9963 21.3616 4.13285 21.3616H20.6644C21.8009 21.3616 22.7308 20.4317 22.7308 19.2952V6.89652C22.7308 5.75998 21.8009 4.83008 20.6644 4.83008ZM19.6312 19.2952H5.16607C4.5978 19.2952 4.13285 18.8302 4.13285 18.2619V8.96296L11.3034 13.4471C11.975 13.8708 12.8222 13.8708 13.4938 13.4471L20.6644 8.96296V18.2619C20.6644 18.8302 20.1994 19.2952 19.6312 19.2952ZM12.3986 12.0626L4.13285 6.89652H20.6644L12.3986 12.0626Z" fill="#020407"/>
</g>
<defs>
<clipPath id="clip0_0_302">
<rect width="24.7973" height="24.7973" fill="white" transform="translate(0 0.699219)"/>
</clipPath>
</defs>
</svg>
