<svg width="41" height="41" viewBox="0 0 41 41" fill="none" xmlns="http://www.w3.org/2000/svg">
<path d="M35.135 12.0384C34.361 13.071 33.4253 13.9717 32.3642 14.7057C32.3642 14.9754 32.3642 15.2451 32.3642 15.5299C32.3727 20.4279 30.4162 25.1246 26.9333 28.5669C23.4503 32.0093 18.7323 33.9093 13.8371 33.8409C11.007 33.8504 8.2131 33.2043 5.67436 31.9529C5.53746 31.8931 5.44917 31.7578 5.44969 31.6083V31.4434C5.44969 31.2283 5.62404 31.0539 5.83911 31.0539C8.62102 30.9621 11.3037 29.9976 13.5076 28.2968C10.9895 28.2459 8.72397 26.7543 7.68132 24.4606C7.62867 24.3354 7.64505 24.1916 7.7246 24.0814C7.80414 23.9713 7.93532 23.9106 8.07074 23.9213C8.83602 23.9981 9.60895 23.9269 10.3473 23.7114C7.56764 23.1344 5.479 20.8268 5.18009 18.0023C5.16947 17.8668 5.23019 17.7356 5.34032 17.6559C5.45044 17.5764 5.59405 17.5599 5.71929 17.6128C6.46522 17.9419 7.27047 18.1153 8.08572 18.1221C5.65005 16.5235 4.598 13.4829 5.52457 10.7198C5.62022 10.4513 5.85 10.253 6.12949 10.1977C6.40895 10.1424 6.69692 10.2382 6.88752 10.4501C10.1743 13.9482 14.6904 16.0327 19.4835 16.2641C19.3608 15.7742 19.3005 15.2707 19.3038 14.7656C19.3487 12.1173 20.9873 9.75813 23.4527 8.79256C25.9178 7.82701 28.7218 8.44616 30.552 10.3602C31.7993 10.1225 33.0053 9.70353 34.1315 9.11646C34.214 9.06496 34.3187 9.06496 34.4012 9.11646C34.4527 9.19899 34.4527 9.30364 34.4012 9.38618C33.8556 10.6353 32.9342 11.683 31.7652 12.3831C32.7888 12.2644 33.7945 12.0229 34.7607 11.6638C34.842 11.6085 34.9488 11.6085 35.0302 11.6638C35.0983 11.695 35.1493 11.7546 35.1695 11.8268C35.1897 11.899 35.177 11.9764 35.135 12.0384Z" fill="#020407"/>
</svg>
